<svg width="1440" height="111" viewBox="0 0 1440 111" fill="none" xmlns="http://www.w3.org/2000/svg">
<path d="M1816 31.6148C1724.67 31.6148 1724.67 111 1633.31 111C1541.96 111 1541.98 31.6148 1450.63 31.6148C1359.27 31.6148 1359.29 111 1267.96 111C1176.63 111 1176.63 31.6148 1085.29 31.6148C993.959 31.6148 993.959 111 902.626 111C811.293 111 811.293 31.6148 719.959 31.6148C628.626 31.6148 628.626 111 537.293 111C445.959 111 445.959 31.6148 354.626 31.6148C263.293 31.6148 263.293 111 171.959 111C80.6261 111 80.6261 31.6148 -10.7072 31.6148C-102.041 31.6148 -102.041 111 -193.354 111C-284.667 111 -284.667 31.6148 -376 31.6148V0H720H1816V31.6148Z" fill="#FE953D"/>
</svg>
