<svg width="2192" height="111" viewBox="0 0 2192 111" fill="none" xmlns="http://www.w3.org/2000/svg">
<path d="M2192 31.6148C2100.67 31.6148 2100.67 111 2009.31 111C1917.96 111 1917.98 31.6148 1826.63 31.6148C1735.27 31.6148 1735.29 111 1643.96 111C1552.63 111 1552.63 31.6148 1461.29 31.6148C1369.96 31.6148 1369.96 111 1278.63 111C1187.29 111 1187.29 31.6148 1095.96 31.6148C1004.63 31.6148 1004.63 111 913.293 111C821.959 111 821.959 31.6148 730.626 31.6148C639.293 31.6148 639.293 111 547.959 111C456.626 111 456.626 31.6148 365.293 31.6148C273.959 31.6148 273.959 111 182.646 111C91.3333 111 91.3333 31.6148 0 31.6148V0H1096H2192V31.6148Z" fill="#FE953D"/>
</svg>
